<svg xmlns="http://www.w3.org/2000/svg" width="1514.505" height="260.742" viewBox="0 0 1514.505 260.742">
  <g id="Layer_2" data-name="Layer 2" transform="translate(0.005 0.007)">
    <g id="Layer_1" data-name="Layer 1">
      <path id="Path_1808" data-name="Path 1808" d="M88,31.63a53.84,53.84,0,0,1,29.15,8.24c.2.11.39.24.58.37h0a56.93,56.93,0,0,1,9.7,7.52l.27.27a59.26,59.26,0,0,1,8.75,11.26,51.74,51.74,0,0,1,5.69,13.14.32.32,0,0,1,0,.14,56.06,56.06,0,0,1,2.07,13.55V193.23a15.81,15.81,0,1,0,31.61,0V85.57c0-.66-.05-1.16-.07-1.74Q174.51,50,150.22,25.64A85.33,85.33,0,0,0,117.69,4.81,86.7,86.7,0,0,0,90.21,0H86.08a3,3,0,0,0-.42,0q-35,.63-60,25.62T0,85.68V193.23a15.81,15.81,0,1,0,31.61,0V87.57a54.418,54.418,0,0,1,2.672-16.845l0,0a.55.55,0,0,0,.06-.18l.28-.81a51,51,0,0,1,5.79-12c.26-.41.52-.8.81-1.2a61.18,61.18,0,0,1,6.56-8.09l.58-.62a59.8,59.8,0,0,1,5.16-4.47c9.34-7.55,20.22-11.32,32.6-11.73Z" fill="#00a7f6"/>
      <path id="Path_1809" data-name="Path 1809" d="M187.29,97.18l12.23,16.37a7.17,7.17,0,0,0,10,1.47l16.54-12.28a7.17,7.17,0,0,0,1.48-10h0L215.4,76.33a7.17,7.17,0,0,0-10-1.49L188.8,87.13a7.18,7.18,0,0,0-1.5,10Z" fill="#00a7f6"/>
      <path id="Path_1810" data-name="Path 1810" d="M257.06,145.62c-.19-.56-.38-1.14-.58-1.71s-.42-1.17-.64-1.74-.55-1.44-.83-2.13-.62-1.47-.93-2.18-.63-1.43-1-2.13-.55-1.15-.83-1.7q-1.38-2.73-3-5.38a16.529,16.529,0,0,0-1.74-2.77A15.86,15.86,0,0,0,221,143a16.152,16.152,0,0,0,1.12,1.82l.17.28a4,4,0,0,1,.28.5,54.42,54.42,0,0,1,7,27.56,57.271,57.271,0,0,1-.73,9.43,53.92,53.92,0,0,1-15.59,30.06,53.07,53.07,0,0,1-25.18,14.67,3.341,3.341,0,0,1-.52.14c-.33.08-.66.19-1,.25a2.33,2.33,0,0,1-.38.08,61.62,61.62,0,0,1-24.94,0,1.25,1.25,0,0,1-.19,0,52,52,0,0,1-16.9-6.91,57.13,57.13,0,0,1-10-8.06l-.19-.17a62.112,62.112,0,0,1-6.82-8.19,53.79,53.79,0,0,1-9.48-31.3V78.25a15.81,15.81,0,1,0-31.61,0v97.54h0v.3q.82,27,16.15,47.93c.27.38.54.76.82,1.12a97,97,0,0,0,8.64,9.92,91.919,91.919,0,0,0,13,10.93c.58.39,1.16.79,1.76,1.16a81.07,81.07,0,0,0,21.19,9.88l1.18.36c.66.19,1.36.38,2.05.55a91.51,91.51,0,0,0,22.74,2.79A89.669,89.669,0,0,0,196.42,258q22-5.64,39.18-22.86,25.66-25.63,25.65-61.91a89,89,0,0,0-4.19-27.61Z" fill="#00a7f6"/>
      <path id="Path_1811" data-name="Path 1811" d="M335.5,27.49h69.9V48.42H358.17V67.6h44.61V88.53H358.17v20.92H408v20.93H335.5Z" fill="#00a7f6"/>
      <path id="Path_1812" data-name="Path 1812" d="M427.05,27.49h22.67v82h42v20.93H427.05Z" fill="#00a7f6"/>
      <path id="Path_1813" data-name="Path 1813" d="M504.22,27.49H535L578.77,99h.29V27.49h22.67V130.38H572.09L527.18,57.14h-.29v73.24H504.22Z" fill="#00a7f6"/>
      <path id="Path_1814" data-name="Path 1814" d="M672.65,24.87c32.12,0,55.52,21.08,55.52,54.06S704.77,133,672.65,133s-55.51-21.08-55.51-54.07S640.54,24.87,672.65,24.87Zm0,87.2c19.33,0,32-13.95,32-33.14S692,45.8,672.65,45.8s-32,14-32,33.13S653.33,112.07,672.65,112.07Z" fill="#00a7f6"/>
      <path id="Path_1815" data-name="Path 1815" d="M793.57,24.87c32.11,0,55.51,21.08,55.51,54.06S825.68,133,793.57,133s-55.52-21.08-55.52-54.07S761.45,24.87,793.57,24.87Zm0,87.2c19.32,0,32-13.95,32-33.14s-12.65-33.13-32-33.13-32,14-32,33.13S774.24,112.07,793.57,112.07Z" fill="#00a7f6"/>
      <path id="Path_1816" data-name="Path 1816" d="M864.49,27.49h39.82c21.07,0,38.8,7.27,38.8,31.24,0,14.39-7.7,25.58-22.24,28.2L947,130.38H919.86L898.35,89.25H887.16v41.13H864.49Zm22.67,42.58h13.37c8.28,0,19-.29,19-11.48,0-10.32-9.3-11.92-17.58-11.92H887.16Z" fill="#00a7f6"/>
      <path id="Path_1817" data-name="Path 1817" d="M1008.65,24.87c32.12,0,55.52,21.08,55.52,54.06S1040.77,133,1008.65,133s-55.51-21.08-55.51-54.07S976.53,24.87,1008.65,24.87Zm0,87.2c19.33,0,32-13.95,32-33.14s-12.64-33.13-32-33.13-32,14-32,33.13S989.32,112.07,1008.65,112.07Z" fill="#00a7f6"/>
      <path id="Path_1818" data-name="Path 1818" d="M1079.57,27.49h30.81L1154.12,99h.29V27.49h22.67V130.38h-29.64l-44.91-73.24h-.29v73.24h-22.67Z" fill="#00a7f6"/>
      <path id="Path_1819" data-name="Path 1819" d="M1198.88,27.49h22.68v82h42v20.93h-64.67Z" fill="#00a7f6"/>
      <path id="Path_1820" data-name="Path 1820" d="M1275.76,27.49h22.67V130.38h-22.67Z" fill="#00a7f6"/>
      <path id="Path_1821" data-name="Path 1821" d="M1319.07,27.49h30.81L1393.62,99h.29V27.49h22.67V130.38h-29.64L1342,57.14h-.29v73.24h-22.67Z" fill="#00a7f6"/>
      <path id="Path_1822" data-name="Path 1822" d="M1438.38,27.49h69.9V48.42h-47.23V67.6h44.62V88.53h-44.62v20.92h49.85v20.93h-72.52Z" fill="#00a7f6"/>
      <path id="Path_1823" data-name="Path 1823" d="M334.75,183.71h7.85l13.6,49.67h.17l14.7-49.67H379l14.62,49.67h.16l13.86-49.67h7.43l-17.57,59.8h-7.69L375,192.83h-.17L360,243.51h-7.78Z" fill="#00a7f6"/>
      <path id="Path_1824" data-name="Path 1824" d="M465,183.71h37.59v6.58h-30.5v18.76h28.47v6.59H472.09v21.28h32v6.59H465Z" fill="#00a7f6"/>
      <path id="Path_1825" data-name="Path 1825" d="M557.06,183.71h18.25c9.88,0,19.85,3.71,19.85,14.69,0,6.93-4,11.58-10.47,13.52v.17a14.6,14.6,0,0,1,13.51,14.7c0,13.17-12.25,16.72-23.31,16.72H557.06Zm7.1,25.34H574c6.67,0,13.6-1.44,13.6-9.72,0-7.35-6.42-9-12.84-9h-10.6Zm0,27.87h12c6.93,0,14.45-2.78,14.45-10.39,0-8.36-7.1-10.89-14.28-10.89H564.16Z" fill="#00a7f6"/>
      <path id="Path_1826" data-name="Path 1826" d="M746.1,194.27c-2.36-3.81-6.59-5.5-10.9-5.5-6.25,0-12.75,3-12.75,10.06,0,5.49,3,7.94,12.59,11,9.29,2.95,17.9,6,17.9,17.74,0,11.91-10.22,17.48-21,17.48-6.93,0-14.36-2.28-18.41-8.28l6.08-5c2.53,4.39,7.6,6.67,12.75,6.67,6.08,0,13-3.54,13-10.39,0-7.34-5-8.61-15.63-12.16-8.44-2.79-14.86-6.5-14.86-16.47,0-11.49,9.88-17.23,20.35-17.23,6.68,0,12.34,1.85,16.73,7Z" fill="#00a7f6"/>
      <path id="Path_1827" data-name="Path 1827" d="M803.2,213.61c0-18.08,13.09-31.42,31.25-31.42s31.26,13.34,31.26,31.42S852.62,245,834.45,245,803.2,231.69,803.2,213.61Zm54.91,0c0-13.77-9.63-24.84-23.66-24.84s-23.65,11.07-23.65,24.84,9.63,24.83,23.65,24.83S858.11,227.38,858.11,213.61Z" fill="#00a7f6"/>
      <path id="Path_1828" data-name="Path 1828" d="M919.09,183.71h7.09v53.21h27.37v6.59H919.09Z" fill="#00a7f6"/>
      <path id="Path_1829" data-name="Path 1829" d="M1048.16,220.71c0,13-6.09,24.32-22.56,24.32s-22.55-11.32-22.55-24.32v-37h7.09v36c0,9.63,3.55,18.75,15.46,18.75s15.46-9.12,15.46-18.75v-36h7.1Z" fill="#00a7f6"/>
      <path id="Path_1830" data-name="Path 1830" d="M1144.87,190.29H1125.1v53.22H1118V190.29h-19.77v-6.58h46.63Z" fill="#00a7f6"/>
      <path id="Path_1831" data-name="Path 1831" d="M1195.21,183.71h7.09v59.8h-7.09Z" fill="#00a7f6"/>
      <path id="Path_1832" data-name="Path 1832" d="M1255.69,213.61c0-18.08,13.09-31.42,31.25-31.42s31.26,13.34,31.26,31.42S1305.1,245,1286.94,245,1255.69,231.69,1255.69,213.61Zm54.9,0c0-13.77-9.63-24.84-23.65-24.84s-23.65,11.07-23.65,24.84,9.63,24.83,23.65,24.83S1310.59,227.38,1310.59,213.61Z" fill="#00a7f6"/>
      <path id="Path_1833" data-name="Path 1833" d="M1371.58,183.71h9l34.63,49.67h.17V183.71h7.1v59.8h-9l-34.63-49.67h-.17v49.67h-7.09Z" fill="#00a7f6"/>
      <path id="Path_1834" data-name="Path 1834" d="M1507.65,194.27c-2.36-3.81-6.59-5.5-10.89-5.5-6.25,0-12.76,3-12.76,10.06,0,5.49,3,7.94,12.59,11,9.29,2.95,17.91,6,17.91,17.74,0,11.91-10.23,17.48-21,17.48-6.92,0-14.36-2.28-18.41-8.28l6.08-5c2.53,4.39,7.6,6.67,12.75,6.67,6.09,0,13-3.54,13-10.39,0-7.34-5-8.61-15.62-12.16-8.45-2.79-14.87-6.5-14.87-16.47,0-11.49,9.88-17.23,20.36-17.23,6.67,0,12.33,1.85,16.72,7Z" fill="#00a7f6"/>
    </g>
  </g>
</svg>
