<svg xmlns="http://www.w3.org/2000/svg" width="1184.088" height="275.001" viewBox="0 0 1184.088 275.001">
  <g id="Layer_2" data-name="Layer 2" transform="translate(0.002)">
    <g id="Layer_1" data-name="Layer 1">
      <path id="Path_1755" data-name="Path 1755" d="M1010.94,42.17a53.84,53.84,0,0,1,29.15,8.24c.21.11.39.24.58.36h0a56.93,56.93,0,0,1,9.7,7.52l.27.27a59.261,59.261,0,0,1,8.75,11.26A51.38,51.38,0,0,1,1065.1,83a.319.319,0,0,1,0,.14,56.06,56.06,0,0,1,2.07,13.55c0,.47,0,.94,0,1.42V203.77a15.81,15.81,0,0,0,31.62,0V96.11a16.18,16.18,0,0,0-.06-1.74q-1.27-33.84-25.56-58.17a85.37,85.37,0,0,0-32.52-20.83,86.81,86.81,0,0,0-27.49-4.79h-4.1a3.09,3.09,0,0,0-.43,0q-35,.63-60,25.62T923,96.22V203.77a15.81,15.81,0,1,0,31.61,0V98.11a54.417,54.417,0,0,1,2.672-16.845l0,0a.551.551,0,0,0,.06-.18l.29-.81a50.551,50.551,0,0,1,5.78-12c.27-.41.52-.8.82-1.2A61.087,61.087,0,0,1,970.77,59l.58-.62a61.329,61.329,0,0,1,5.16-4.47c9.34-7.55,20.23-11.32,32.6-11.73Q1010,42.17,1010.94,42.17Z" fill="#00a7f6"/>
      <path id="Path_1756" data-name="Path 1756" d="M1110.29,107.72l12.22,16.37a7.17,7.17,0,0,0,10,1.47l16.54-12.28a7.17,7.17,0,0,0,1.49-10h0l-12.16-16.37a7.16,7.16,0,0,0-10-1.49l-16.6,12.28a7.17,7.17,0,0,0-1.5,10Z" fill="#00a7f6"/>
      <path id="Path_1757" data-name="Path 1757" d="M1180.05,156.16c-.18-.56-.37-1.14-.58-1.71s-.42-1.17-.64-1.74c-.27-.72-.55-1.44-.83-2.13s-.61-1.48-.93-2.18-.62-1.43-1-2.13-.55-1.15-.83-1.7q-1.38-2.73-3-5.38A15.86,15.86,0,1,0,1144,153.58a16.156,16.156,0,0,0,1.12,1.82c.06.09.11.19.17.27a5.144,5.144,0,0,1,.29.51,54.518,54.518,0,0,1,7,27.56,58.4,58.4,0,0,1-.74,9.43,53.8,53.8,0,0,1-15.59,30.05,53,53,0,0,1-25.18,14.68,4.413,4.413,0,0,1-.52.14c-.33.08-.66.19-1,.25a2.21,2.21,0,0,1-.37.08,61.671,61.671,0,0,1-25,0h-.19a52,52,0,0,1-16.9-6.91,57.064,57.064,0,0,1-10-8.06,1.614,1.614,0,0,1-.19-.18,60.628,60.628,0,0,1-6.82-8.18,53.869,53.869,0,0,1-9.49-31.3V88.79a15.81,15.81,0,1,0-31.61,0v97.54h0v.3q.82,27,16.15,47.93c.26.38.53.76.81,1.12a97,97,0,0,0,8.64,9.92,91.915,91.915,0,0,0,13,10.93c.58.39,1.16.78,1.76,1.16a81,81,0,0,0,21.2,9.88c.39.13.78.23,1.17.36.66.19,1.37.38,2.06.55a91.43,91.43,0,0,0,22.73,2.79,89.672,89.672,0,0,0,22.74-2.79q22-5.64,39.18-22.86,25.67-25.64,25.66-61.91a89.317,89.317,0,0,0-4.03-27.55Z" fill="#00a7f6"/>
      <path id="Path_1758" data-name="Path 1758" d="M36.76,72.58H48.88a3.47,3.47,0,0,0,2.57-1,3.29,3.29,0,0,0,1-2.41V57a3.48,3.48,0,0,0-1-2.56,3.28,3.28,0,0,0-2.41-1H36.76a3.69,3.69,0,0,0-2.64,1A3.33,3.33,0,0,0,33,57V69.16a3.25,3.25,0,0,0,1,2.41,3.64,3.64,0,0,0,2.76,1.01Z" fill="#00a7f6"/>
      <path id="Path_1759" data-name="Path 1759" d="M143.07,147a5.42,5.42,0,0,0,2.56-1.86,7.629,7.629,0,0,0,1-2.65c.31-2.79.49-6.45.55-11s.08-10.08.08-16.71V100.4q0-3.41-.08-7.22c-.06-2.54-.13-5.47-.24-8.78a3.68,3.68,0,0,0-.93-2.1,3.22,3.22,0,0,0-2.49-.86H130.48a3,3,0,0,0-2.25.86,2.86,2.86,0,0,0-.86,2.1q.31,11.19.31,20.82v18.5c0,2.48-.41,4-1.24,4.43a12.3,12.3,0,0,1-5,.7H84.32v-44a3,3,0,0,0-.78-2.1,2.82,2.82,0,0,0-2.17-.85H67.84a3.14,3.14,0,0,0-2.17.85,2.74,2.74,0,0,0-.93,2.1v57.51q0,5.74-.16,13.36-3.57.47-6.14.63t-5.52.15q-10.41,0-16.86-2.64a22.25,22.25,0,0,1-10-7.54,28.14,28.14,0,0,1-4.66-11.89,95.671,95.671,0,0,1-1.16-15.7q0-2.17.15-6.06t.47-7.3q.3-3-2.65-3H6.61a3.07,3.07,0,0,0-2.33.7,5,5,0,0,0-.94,2.41q-.46,2.34-.85,5.44c-.26,2.08-.47,4.17-.62,6.3s-.29,4.12-.39,6-.16,3.32-.16,4.35q0,25.34,12.52,37t38.77,11.66q7.3,0,14.38-.62a86.2,86.2,0,0,0,13.75-2.33q3.27-.78,3.27-3.42c.21-2.9.31-6.3.31-10.18v-11h33.73c2.07,0,4.35,0,6.83-.08s4.9-.15,7.23-.31,4.46-.33,6.37-.54a31.1,31.1,0,0,0,4.59-.75Z" fill="#00a7f6"/>
      <path id="Path_1760" data-name="Path 1760" d="M147.73,162.26H136.85a3.83,3.83,0,0,0-2.56,1,3.26,3.26,0,0,0-1.17,2.57v12.43a2.93,2.93,0,0,0,1.17,2.25,3.78,3.78,0,0,0,2.56,1h10.88a3.47,3.47,0,0,0,2.57-1,3.12,3.12,0,0,0,1-2.25V165.84a3.46,3.46,0,0,0-3.58-3.58Z" fill="#00a7f6"/>
      <path id="Path_1761" data-name="Path 1761" d="M118.82,162.26H108.1a3.74,3.74,0,0,0-2.64,1,3.35,3.35,0,0,0-1.09,2.57v12.43a3,3,0,0,0,1.09,2.25,3.69,3.69,0,0,0,2.64,1h10.72a4.12,4.12,0,0,0,2.65-1,2.9,2.9,0,0,0,1.24-2.25V165.84a3.26,3.26,0,0,0-1.17-2.57A4,4,0,0,0,118.82,162.26Z" fill="#00a7f6"/>
      <path id="Path_1762" data-name="Path 1762" d="M187.36,117.19H201a2.74,2.74,0,0,0,2.1-.93,3.33,3.33,0,0,0,.85-2.33V43.52a2.6,2.6,0,0,0-3-3H187.52q-3.11,0-3.11,3v70.41a3.34,3.34,0,0,0,.86,2.33,2.71,2.71,0,0,0,2.09.93Z" fill="#00a7f6"/>
      <path id="Path_1763" data-name="Path 1763" d="M249.69,30.46H235.55a3.2,3.2,0,0,0-3.11,3.11v90.15c0,2.48-.39,4-1.17,4.43a11.6,11.6,0,0,1-4.89.7H169a3,3,0,0,0-2.09.77,2.62,2.62,0,0,0-.86,2v14.3a2.59,2.59,0,0,0,.86,2,3,3,0,0,0,2.09.78h52.07c2.18,0,4.64,0,7.38-.08s5.39-.15,7.93-.31,4.9-.33,7.07-.54a32.13,32.13,0,0,0,5-.78,4.91,4.91,0,0,0,2.48-1.86,8.5,8.5,0,0,0,.93-2.65q.31-4,.55-8.31t.23-10.18V33.57a3.09,3.09,0,0,0-.85-2.17,2.72,2.72,0,0,0-2.1-.94Z" fill="#00a7f6"/>
      <path id="Path_1764" data-name="Path 1764" d="M390.35,81.91H376.82a3.14,3.14,0,0,0-2.17.85,2.74,2.74,0,0,0-.93,2.1v57.59q0,5.67-.16,13.28-3.57.47-6.14.63t-5.52.15q-10.41,0-16.86-2.64a22.19,22.19,0,0,1-10-7.54,28.139,28.139,0,0,1-4.66-11.89,95.612,95.612,0,0,1-1.17-15.7c0-1.45.06-3.47.16-6.06s.26-5,.47-7.3q.3-3-2.65-3h-11.6a3.07,3.07,0,0,0-2.33.7,5,5,0,0,0-.94,2.41q-.46,2.34-.85,5.44c-.26,2.08-.47,4.17-.62,6.3s-.29,4.12-.39,6-.16,3.32-.16,4.35q0,25.34,12.51,37t38.78,11.66q7.31,0,14.22-.62a86.289,86.289,0,0,0,13.6-2.33q3.42-.63,3.42-3.42.32-5.44.39-12.36T393.3,145V84.86a2.92,2.92,0,0,0-2.95-3Z" fill="#00a7f6"/>
      <path id="Path_1765" data-name="Path 1765" d="M345.74,72.58h12.12a3.47,3.47,0,0,0,2.57-1,3.29,3.29,0,0,0,1-2.41V57a3.48,3.48,0,0,0-1-2.56,3.28,3.28,0,0,0-2.41-1H345.74a3.69,3.69,0,0,0-2.64,1A3.33,3.33,0,0,0,342,57V69.16a3.25,3.25,0,0,0,1,2.41,3.64,3.64,0,0,0,2.74,1.01Z" fill="#00a7f6"/>
      <path id="Path_1766" data-name="Path 1766" d="M477.85,75.69a26.741,26.741,0,0,0-4.43-1.09c-1.81-.31-3.76-.56-5.83-.77s-4.22-.39-6.45-.55-4.33-.23-6.29-.23q-20.06,0-30.86,10t-10.8,28.37v3.11q0,16.94,9.17,25.56t25,8.63c.93,0,2,0,3.18-.08a29.229,29.229,0,0,0,3.65-.39,34.22,34.22,0,0,0,3.58-.77,8.76,8.76,0,0,0,2.8-1.25l-.16,7.15a16.09,16.09,0,0,1-1.71,7.31,11.13,11.13,0,0,1-4.58,4.43,22.28,22.28,0,0,1-7.62,2.25,81,81,0,0,1-10.65.62H421.74c-1.86,0-2.8.88-2.8,2.65V182a3.45,3.45,0,0,0,.47,1.94,3,3,0,0,0,2,1,13.63,13.63,0,0,0,3.42.39c1.66,0,3.47.13,5.44.24s3.86.15,5.67.15h4.12a81.937,81.937,0,0,0,15.39-1.4,32.62,32.62,0,0,0,12.9-5.36,27,27,0,0,0,8.86-11q3.25-7.06,3.26-18.41V78.64a2.67,2.67,0,0,0-.47-1.78,5.69,5.69,0,0,0-2.15-1.17Zm-16.94,49.58c0,2-1.12,3.16-3.34,3.58a47,47,0,0,1-8.32.62q-8.7,0-12.59-4.28t-3.88-13.13v-2q0-9,4.81-14t13.84-5a92.639,92.639,0,0,1,9.48.46Z" fill="#00a7f6"/>
      <path id="Path_1767" data-name="Path 1767" d="M525.56,21.76H514.68A5.86,5.86,0,0,1,512.35,19a10.49,10.49,0,0,1-.93-4.58q0-3.42,1.86-4.82c1.25-.94,3.21-1.4,5.91-1.4h5.44c1.34,0,2-.52,2-1.56V2.49q0-1.25-1.71-1.56a16.26,16.26,0,0,0-4-.77C519.52.05,518.4,0,517.58,0q-15.56,0-15.55,13.06a18.259,18.259,0,0,0,.62,4.66,14.282,14.282,0,0,0,1.87,4.2h-2.95c-1.66,0-2.49.51-2.49,1.55V28q0,1.86,2.49,1.86H525.5q2.49,0,2.49-1.86V23.31C528.05,22.28,527.22,21.76,525.56,21.76Z" fill="#00a7f6"/>
      <path id="Path_1768" data-name="Path 1768" d="M521.52,41.19h-14a2.91,2.91,0,0,0-2.25.93,3.13,3.13,0,0,0-.86,2.18V145.48a3.39,3.39,0,0,0,.86,2.25,2.78,2.78,0,0,0,2.25,1h14a2.78,2.78,0,0,0,2.25-1,3.39,3.39,0,0,0,.86-2.25V44.3a3.13,3.13,0,0,0-.86-2.18,2.91,2.91,0,0,0-2.25-.93Z" fill="#00a7f6"/>
      <path id="Path_1769" data-name="Path 1769" d="M608.56,81.91H595a3.09,3.09,0,0,0-2.26.85,2.85,2.85,0,0,0-.85,2.1v69.79a26.092,26.092,0,0,1-.86,7.53,7.86,7.86,0,0,1-2.72,4.12,10.09,10.09,0,0,1-4.89,1.79,59.255,59.255,0,0,1-7.39.39h-3.26c-1.76,0-2.64.78-2.64,2.33v11.5a2.64,2.64,0,0,0,2.17,2.95,42,42,0,0,0,5.29.39c2.17,0,3.67.08,4.51.08q9.78,0,16-2.72a20.25,20.25,0,0,0,9.8-9.4,28.73,28.73,0,0,0,2.95-10,101.02,101.02,0,0,0,.62-11.34V84.86a2.9,2.9,0,0,0-3-3Z" fill="#00a7f6"/>
      <path id="Path_1770" data-name="Path 1770" d="M731,64.66h12.12a3.51,3.51,0,0,0,2.57-1,3.32,3.32,0,0,0,1-2.41V49.11a3.48,3.48,0,0,0-1-2.56,3.32,3.32,0,0,0-2.41-1H731a3.74,3.74,0,0,0-2.64,1,3.33,3.33,0,0,0-1.09,2.56V61.24a3.28,3.28,0,0,0,1,2.41A3.68,3.68,0,0,0,731,64.66Z" fill="#00a7f6"/>
      <path id="Path_1771" data-name="Path 1771" d="M793.51,30.46H779.36a2.94,2.94,0,0,0-2.17.94,3.15,3.15,0,0,0-.93,2.33v90c0,2.48-.39,4-1.17,4.43a11.628,11.628,0,0,1-4.9.7H757c-.72,0-1.58,0-2.56-.08a20.282,20.282,0,0,1-3-.39,14,14,0,0,1-2.8-.85,3.61,3.61,0,0,1-1.71-1.33V84.86a2.9,2.9,0,0,0-3-3H730.41a3.09,3.09,0,0,0-2.26.85,2.85,2.85,0,0,0-.85,2.1v38.7a4.08,4.08,0,0,1-.94,2.88,6.25,6.25,0,0,1-2.25,1.55,9.819,9.819,0,0,1-2.87.7c-1,.1-2,.16-3,.16H698.55V78.64a2.46,2.46,0,0,0-.55-1.78,6.711,6.711,0,0,0-2.1-1.17,26.86,26.86,0,0,0-4.35-1.09c-1.76-.31-3.68-.56-5.75-.77s-4.22-.39-6.45-.55-4.33-.23-6.29-.23q-20.05,0-30.86,10t-10.8,28.37v3.11q0,16.94,9.56,25.56t26.5,8.63h11.35v4.66a15,15,0,0,1-1.56,7.31,11,11,0,0,1-4.74,4.43,23.92,23.92,0,0,1-7.77,2.25,81,81,0,0,1-10.65.62H640c-1.86,0-2.8.88-2.8,2.65V182a3.45,3.45,0,0,0,.47,1.94,3,3,0,0,0,2,1,13.63,13.63,0,0,0,3.42.39c1.66,0,3.47.13,5.44.24s3.86.15,5.67.15h4.12a76.142,76.142,0,0,0,14.92-1.4,34.1,34.1,0,0,0,12.28-4.89,26.6,26.6,0,0,0,8.63-9.64q3.33-6.13,4.11-15.78v-5.28h17.1c1.66,0,3.44-.08,5.36-.23a43.869,43.869,0,0,0,5.75-.86A36.349,36.349,0,0,0,732,146a21.513,21.513,0,0,0,4.82-2.56,21.33,21.33,0,0,0,10.1,4.27,72,72,0,0,0,12,1h7.61c2.07,0,4.38,0,6.92-.08s5-.15,7.38-.31,4.59-.33,6.61-.54a31.33,31.33,0,0,0,4.74-.78,5.42,5.42,0,0,0,2.56-1.86,7.628,7.628,0,0,0,1-2.65c.31-2.79.52-5.88.62-9.24s.16-6.45.16-9.25V33.73a3.34,3.34,0,0,0-.85-2.33,2.73,2.73,0,0,0-2.16-.94Zm-114.39,99H667.46q-8.7,0-12.59-4.28T651,112.06v-2q0-9,4.89-14t13.76-5a92.635,92.635,0,0,1,9.48.46Z" fill="#00a7f6"/>
      <path id="Path_1772" data-name="Path 1772" d="M839.74,31.4a2.89,2.89,0,0,0-2.25-.94h-14a2.89,2.89,0,0,0-2.25.94,3.1,3.1,0,0,0-.86,2.17V145.48a3.39,3.39,0,0,0,.86,2.25,2.78,2.78,0,0,0,2.25,1h14a2.78,2.78,0,0,0,2.25-1,3.39,3.39,0,0,0,.86-2.25V33.57a3.1,3.1,0,0,0-.86-2.17Z" fill="#00a7f6"/>
      <path id="Path_1773" data-name="Path 1773" d="M29.67,264.6H26.49a1.78,1.78,0,0,0-1.18.44,1.48,1.48,0,0,0-.52,1.19v4a1.41,1.41,0,0,0,.52,1.07,1.68,1.68,0,0,0,1.18.48h3.18a1.7,1.7,0,0,0,1.19-.48,1.45,1.45,0,0,0,.52-1.07v-4a1.51,1.51,0,0,0-.52-1.19,1.81,1.81,0,0,0-1.19-.44Z" fill="#00a7f6"/>
      <path id="Path_1774" data-name="Path 1774" d="M313.9,257a2.58,2.58,0,0,0,1.22-.89,3.569,3.569,0,0,0,.49-1.26,44.2,44.2,0,0,0,.25-4.74V233.39c0-1.13-.06-2.54-.11-4.22a1.42,1.42,0,0,0-.37-1,1.31,1.31,0,0,0-1-.4H310.8a1.13,1.13,0,0,0-.93.4,1.54,1.54,0,0,0-.33,1c0,1.93.08,3.7.11,5.33s0,3.21,0,4.74v9.47c0,1.28-.2,2-.6,2.29a6.13,6.13,0,0,1-2.73.37H61.79a11.9,11.9,0,0,1-1.48-.07,14.306,14.306,0,0,1-1.74-.26A7.048,7.048,0,0,1,57,250.5a1.71,1.71,0,0,1-.93-.92V229.23a1.41,1.41,0,0,0-.37-1,1.25,1.25,0,0,0-1-.41H51.28a1.37,1.37,0,0,0-1,.41,1.35,1.35,0,0,0-.4,1v19.38a2,2,0,0,1-.56,1.52,3.29,3.29,0,0,1-1.33.81,6.93,6.93,0,0,1-1.7.34c-.62.05-1.15.07-1.59.07H23.83a33.23,33.23,0,0,1-9.36-1.07,12.2,12.2,0,0,1-5.41-3.07,9.77,9.77,0,0,1-2.47-4.74A28.38,28.38,0,0,1,6,236.4a24.358,24.358,0,0,1,.08-2.44c.08-.79.12-1.75.22-2.88S6,229.6,5.18,229.6H2.07c-.84,0-1.33.46-1.48,1.4a38.058,38.058,0,0,0-.48,3.81C0,235.92,0,237,0,238a30.91,30.91,0,0,0,1,8.18,13.37,13.37,0,0,0,3.63,6.21,17.21,17.21,0,0,0,7.17,3.93,41.471,41.471,0,0,0,11.66,1.37H42.11a43.922,43.922,0,0,0,6-.41,9.26,9.26,0,0,0,4.84-2,5.55,5.55,0,0,0,2,1.26,19.678,19.678,0,0,0,2.44.74,14.578,14.578,0,0,0,2.48.37c.82.05,1.57.08,2.26.08H307.17c.94,0,1.85-.08,2.74-.15s1.67-.15,2.37-.22A7.572,7.572,0,0,0,313.9,257Z" fill="#00a7f6"/>
      <path id="Path_1775" data-name="Path 1775" d="M303.54,264.6h-2.88a1.76,1.76,0,0,0-1.22.44,1.54,1.54,0,0,0-.48,1.19v4a1.47,1.47,0,0,0,.48,1.07,1.66,1.66,0,0,0,1.22.48h2.88a1.7,1.7,0,0,0,1.19-.48,1.45,1.45,0,0,0,.52-1.07v-4a1.55,1.55,0,0,0-.49-1.19A1.74,1.74,0,0,0,303.54,264.6Z" fill="#00a7f6"/>
      <path id="Path_1776" data-name="Path 1776" d="M315.68,264.6h-2.89a2,2,0,0,0-1.22.44,1.44,1.44,0,0,0-.55,1.19v4a1.38,1.38,0,0,0,.55,1.07,1.83,1.83,0,0,0,1.22.48h2.89a1.68,1.68,0,0,0,1.18-.48,1.41,1.41,0,0,0,.52-1.07v-4a1.48,1.48,0,0,0-.52-1.19A1.78,1.78,0,0,0,315.68,264.6Z" fill="#00a7f6"/>
      <path id="Path_1777" data-name="Path 1777" d="M376.06,202.14h-3.62a1.4,1.4,0,0,0-1.41,1.41v45.14c0,1.28-.18,2-.55,2.29a5.91,5.91,0,0,1-2.7.37H355.86V226a1.31,1.31,0,0,0-.22-.85,2.09,2.09,0,0,0-.89-.48,23.819,23.819,0,0,0-4.7-.85q-2.775-.255-5.73-.26-8.44,0-13,4.52t-4.58,12.28v1.85q0,7.77,4,11.62t11.47,3.85h7.4v3a9.79,9.79,0,0,1-1,4.32,6.24,6.24,0,0,1-2.55,2.59,11.48,11.48,0,0,1-4,1.26,37.921,37.921,0,0,1-5.29.34h-6.29c-.84,0-1.18.35-1.18,1v3.25a1.15,1.15,0,0,0,.22.78,1.8,1.8,0,0,0,1,.41,11.2,11.2,0,0,0,1.33.14c.64,0,1.34.09,2.11.12l2.29.07h1.89a33.069,33.069,0,0,0,7.07-.71,14.589,14.589,0,0,0,5.51-2.36,11.55,11.55,0,0,0,3.63-4.44,17.42,17.42,0,0,0,1.48-6.92v-2.81h12.7c.96,0,1.89-.08,2.77-.15l2.45-.22a8,8,0,0,0,1.7-.33,2.39,2.39,0,0,0,1.18-.89,4.24,4.24,0,0,0,.45-1.26c.09-.59.17-1.26.22-2s.08-1.5.11-2.29,0-1.56,0-2.3V203.55a1.45,1.45,0,0,0-.37-1,1.26,1.26,0,0,0-.98-.41ZM349.65,251.5h-7.33q-5,0-7.18-2.37t-2.22-7.62V240c0-3.4.95-6,2.85-7.84a10.68,10.68,0,0,1,7.73-2.74c1.24,0,2.32,0,3.26.07s1.9.13,2.89.22Z" fill="#00a7f6"/>
      <path id="Path_1778" data-name="Path 1778" d="M395,202.07h-3.63a1.33,1.33,0,0,0-1,.44,1.49,1.49,0,0,0-.4,1v52.68a1.47,1.47,0,0,0,.4,1,1.3,1.3,0,0,0,1,.45H395a1.19,1.19,0,0,0,1-.45,1.54,1.54,0,0,0,.37-1V203.55a1.56,1.56,0,0,0-.37-1,1.21,1.21,0,0,0-1-.48Z" fill="#00a7f6"/>
      <path id="Path_1779" data-name="Path 1779" d="M459.9,202.14h-3.7a1.25,1.25,0,0,0-1,.41,1.41,1.41,0,0,0-.37,1V259.9c0,1.07-.06,2.25-.11,3.63a17.9,17.9,0,0,1-3.29.44c-1.16.05-2.23.08-3.22.08a23.421,23.421,0,0,1-9.06-1.45,11.47,11.47,0,0,1-5.11-4,14,14,0,0,1-2.26-5.92,48.912,48.912,0,0,1-.51-7.25,25.4,25.4,0,0,1,.14-3.07c.14-1.21.2-2.38.3-3.51s-.22-1.56-1.11-1.56h-3.18c-.69,0-1.14.47-1.33,1.41a21.552,21.552,0,0,0-.37,2.33c-.1.86-.19,1.73-.26,2.59s-.14,1.68-.19,2.44-.07,1.39-.07,1.89a36.75,36.75,0,0,0,1.11,9.43,16.53,16.53,0,0,0,3.77,7.07,17,17,0,0,0,7,4.4A33.549,33.549,0,0,0,448,270.37q3.25,0,6-.26a41.712,41.712,0,0,0,5.33-.85,3.43,3.43,0,0,0,1.19-.52,1.48,1.48,0,0,0,.44-1c.05-.6.09-1.4.11-2.41s.05-2.07.08-3.18,0-2.16.07-3.15,0-1.77,0-2.37V203.55a1.45,1.45,0,0,0-.37-1A1.26,1.26,0,0,0,459.9,202.14Z" fill="#00a7f6"/>
      <path id="Path_1780" data-name="Path 1780" d="M841.07,202.55a1.25,1.25,0,0,0-1-.41h-3.63a1.37,1.37,0,0,0-1,.41,1.35,1.35,0,0,0-.4,1v45.14c0,1.28-.19,2-.56,2.29a5.911,5.911,0,0,1-2.7.37h-6a1.58,1.58,0,0,1-.82-.15,2.81,2.81,0,0,1-.59-.74l-3-7.47-.81-1.93a40,40,0,0,0-4.59-8.47,21.139,21.139,0,0,0-5.33-5.18,18.091,18.091,0,0,0-6.14-2.59,32.84,32.84,0,0,0-7-.7,29.8,29.8,0,0,0-3.59.15,22.45,22.45,0,0,0-3.44.52,1.92,1.92,0,0,0-1.11.48,1.371,1.371,0,0,0-.29.92v3c0,.79.54,1.13,1.63,1,.83-.1,1.82-.18,3-.26s1.89-.11,2.29-.11q7,0,11,2.74a18.69,18.69,0,0,1,6.47,8.43l1.71,3.93,2.66,6.36H767.07a12.326,12.326,0,0,1-1.55-.07,14.307,14.307,0,0,1-1.74-.26,6.88,6.88,0,0,1-1.55-.52,1.71,1.71,0,0,1-.93-.92v-46a1.41,1.41,0,0,0-.37-1,1.25,1.25,0,0,0-1-.41H756.3a1.37,1.37,0,0,0-1,.41,1.35,1.35,0,0,0-.4,1v45.06a2,2,0,0,1-.56,1.52,3.31,3.31,0,0,1-1.37.81,7.321,7.321,0,0,1-1.7.34c-.59.05-1.13.07-1.63.07H501.12V226a1.31,1.31,0,0,0-.22-.85,2.09,2.09,0,0,0-.89-.48,23.82,23.82,0,0,0-4.7-.85q-2.775-.255-5.73-.26-8.44,0-13,4.52T472,240.4v1.85q0,7.77,4,11.62t11.47,3.85h7.4v3a9.79,9.79,0,0,1-1,4.32,6.24,6.24,0,0,1-2.55,2.59,11.479,11.479,0,0,1-4,1.26,37.916,37.916,0,0,1-5.29.34h-6.29c-.84,0-1.18.35-1.18,1v3.25a1.15,1.15,0,0,0,.22.78,1.76,1.76,0,0,0,1,.41,11.2,11.2,0,0,0,1.33.14c.64,0,1.34.09,2.11.12l2.29.07h1.89a33.069,33.069,0,0,0,7.07-.71,14.59,14.59,0,0,0,5.51-2.36,11.55,11.55,0,0,0,3.63-4.44,17.42,17.42,0,0,0,1.48-6.92v-2.81H749a24.409,24.409,0,0,0,4.62-.49,9.77,9.77,0,0,0,4.4-2,6.7,6.7,0,0,0,2,1.22,12.2,12.2,0,0,0,2.36.74,18.779,18.779,0,0,0,2.48.37q1.26.12,2.37.12h65.3c.96,0,1.89-.08,2.78-.15s1.7-.15,2.44-.22a7.82,7.82,0,0,0,1.7-.33,2.43,2.43,0,0,0,1.19-.89,4.538,4.538,0,0,0,.44-1.26c.1-.59.17-1.26.22-2s.09-1.5.11-2.29,0-1.56,0-2.3V203.55a1.41,1.41,0,0,0-.34-1ZM494.9,251.5h-7.32q-5,0-7.18-2.37t-2.22-7.62V240c0-3.4.95-6,2.85-7.84a10.68,10.68,0,0,1,7.73-2.74c1.24,0,2.32,0,3.26.07s1.9.13,2.88.22Z" fill="#00a7f6"/>
    </g>
  </g>
</svg>
